<?xml version="1.0" encoding="utf-8"?>
<!-- Generator: Adobe Illustrator 17.0.0, SVG Export Plug-In . SVG Version: 6.00 Build 0)  -->
<!DOCTYPE svg PUBLIC "-//W3C//DTD SVG 1.1//EN" "http://www.w3.org/Graphics/SVG/1.1/DTD/svg11.dtd">
<svg version="1.1"
	 id="svg2" xmlns:dc="http://purl.org/dc/elements/1.1/" xmlns:cc="http://creativecommons.org/ns#" xmlns:rdf="http://www.w3.org/1999/02/22-rdf-syntax-ns#" xmlns:inkscape="http://www.inkscape.org/namespaces/inkscape" xmlns:svg="http://www.w3.org/2000/svg" xmlns:sodipodi="http://sodipodi.sourceforge.net/DTD/sodipodi-0.dtd" inkscape:version="0.48.2 r9819"
	 xmlns="http://www.w3.org/2000/svg" xmlns:xlink="http://www.w3.org/1999/xlink" x="0px" y="0px" width="600.25px"
	 height="162.344px" viewBox="0 0 600.25 162.344" enable-background="new 0 0 600.25 162.344" xml:space="preserve">
<sodipodi:namedview  showgrid="false" pagecolor="#ffffff" bordercolor="#666666" borderopacity="1.0" inkscape:zoom="0.35" fit-margin-top="0" inkscape:cx="370.41189" fit-margin-left="0" inkscape:cy="-146.05626" id="base" inkscape:pageopacity="0.0" inkscape:pageshadow="2" inkscape:document-units="px" inkscape:window-y="52" inkscape:current-layer="layer1" fit-margin-right="0" inkscape:window-width="828" fit-margin-bottom="0" inkscape:window-height="655" inkscape:window-maximized="0" inkscape:window-x="208">
	<sodipodi:guide  position="-85.589293,-513.11383" orientation="0,744.09448" id="guide3070"></sodipodi:guide>
	<sodipodi:guide  position="658.50519,-513.11383" orientation="-1052.3622,0" id="guide3072"></sodipodi:guide>
	<sodipodi:guide  position="658.50519,539.24837" orientation="0,-744.09448" id="guide3074"></sodipodi:guide>
	<sodipodi:guide  position="-85.589293,539.24837" orientation="1052.3622,0" id="guide3076"></sodipodi:guide>
	<sodipodi:guide  position="-85.589293,-513.11383" orientation="0,744.09448" id="guide3078"></sodipodi:guide>
	<sodipodi:guide  position="658.50519,-513.11383" orientation="-1052.3622,0" id="guide3080"></sodipodi:guide>
	<sodipodi:guide  position="658.50519,539.24837" orientation="0,-744.09448" id="guide3082"></sodipodi:guide>
	<sodipodi:guide  position="-85.589293,539.24837" orientation="1052.3622,0" id="guide3084"></sodipodi:guide>
</sodipodi:namedview>
<g id="layer1" transform="translate(-85.589293,-376.9046)" inkscape:label="Layer 1" inkscape:groupmode="layer">
	<g id="g3012" transform="matrix(1.25,0,0,-1.25,85.589293,539.24835)" inkscape:label="ink_ext_XXXXXX">
		<g id="g3014" transform="scale(0.1,0.1)">
			<g id="g3016">
				<g>
					<g>
						<g id="g3018">
							<path id="path3024" inkscape:connector-curvature="0" fill="#222E4E" d="M924.973,742.874H521.406
								c-10.41,0-18.855-8.449-18.855-18.867V526.702c0-10.406,8.445-18.891,18.855-18.891H678.84V262.679
								c0,0-35.355-12.055-133.078-12.055c-115.301,0-276.367,42.141-276.367,396.316c0,354.258,167.715,400.867,325.176,400.867
								c136.297,0,195.019-24,232.383-35.559c11.738-3.602,22.598,8.09,22.598,18.508l45.02,190.641
								c0,4.871-1.648,10.742-7.207,14.73c-15.176,10.82-107.746,62.621-341.602,62.621C276.348,1298.749,0,1184.128,0,633.124
								C0,82.108,316.395-0.001,583.02-0.001c220.758,0,354.684,94.344,354.684,94.344c5.52,3.047,6.113,10.758,6.113,14.297
								v615.367C943.816,734.425,935.383,742.874,924.973,742.874"/>
							<path id="path3026" inkscape:connector-curvature="0" fill="#222E4E" d="M3004.75,1232.729c0,10.5-8.32,18.969-18.727,18.969
								h-227.234c-10.383,0-18.82-8.469-18.82-18.969c0-0.051,0.063-439.125,0.063-439.125h-354.188v439.125
								c0,10.5-8.363,18.969-18.754,18.969h-227.219c-10.34,0-18.77-8.469-18.77-18.969V43.702c0-10.492,8.43-19.031,18.77-19.031
								h227.219c10.391,0,18.754,8.539,18.754,19.031v508.586h354.188c0,0-0.625-508.555-0.625-508.586
								c0-10.492,8.438-19.031,18.82-19.031H2986c10.406,0,18.727,8.539,18.75,19.031V1232.729"/>
							<path id="path3028" inkscape:connector-curvature="0" fill="#222E4E" d="M1353.762,1076.698
								c0,81.82-65.602,147.941-146.531,147.941c-80.851,0-146.5-66.121-146.5-147.941c0-81.734,65.648-148.031,146.5-148.031
								C1288.16,928.667,1353.762,994.964,1353.762,1076.698"/>
							<path id="path3030" inkscape:connector-curvature="0" fill="#222E4E" d="M1337.512,294.514c0,30.469,0,548.863,0,548.863
								c0,10.422-8.41,18.941-18.801,18.941h-226.512c-10.391,0-19.688-10.719-19.688-21.137c0,0,0-660.449,0-786.355
								c0-23.109,14.398-29.977,33.039-29.977c0,0,96.68,0,204.078,0c22.391,0,27.883,10.992,27.883,30.352
								C1337.512,97.35,1337.512,262.468,1337.512,294.514"/>
							<path id="path3032" inkscape:connector-curvature="0" fill="#222E4E" d="M3868.32,860.53h-225.492
								c-10.336,0-18.758-8.523-18.758-19.012V258.499c0,0-57.281-41.906-138.594-41.906c-81.297,0-102.875,36.891-102.875,116.5
								c0,79.703,0,508.426,0,508.426c0,10.488-8.398,19.012-18.75,19.012H3135c-10.328,0-18.789-8.523-18.789-19.012
								c0,0,0-310.48,0-546.926c0-236.469,131.789-294.312,313.086-294.312c148.734,0,268.656,82.172,268.656,82.172
								s5.703-43.305,8.289-48.438c2.586-5.125,9.32-10.297,16.586-10.297l145.594,0.641c10.328,0,18.789,8.539,18.789,18.984
								l-0.07,798.176C3887.14,852.007,3878.711,860.53,3868.32,860.53"/>
							<path id="path3034" inkscape:connector-curvature="0" fill="#222E4E" d="M4395.671,217.311
								c-78.211,2.375-131.266,37.867-131.266,37.867v376.539c0,0,52.344,32.082,116.555,37.816
								c81.195,7.273,159.438-17.254,159.438-210.957C4540.398,254.319,4505.093,214.014,4395.671,217.311z M4484.609,887.241
								c-128.07,0-215.18-57.141-215.18-57.141v402.629c0,10.5-8.391,18.969-18.75,18.969h-227.867
								c-10.359,0-18.781-8.469-18.781-18.969V43.702c0-10.492,8.422-19.031,18.805-19.031c0.023,0,158.055,0,158.102,0
								c7.125,0,12.516,3.672,16.492,10.094c3.93,6.391,9.602,54.828,9.602,54.828s93.179-88.305,269.57-88.305
								c207.078,0,325.836,105.039,325.836,471.547C4802.437,839.346,4612.765,887.241,4484.609,887.241"/>
							<path id="path3036" inkscape:connector-curvature="0" fill="#222E4E" d="M1990.578,862.425h-170.449
								c0,0-0.258,225.133-0.258,225.184c0,8.52-4.391,12.781-14.242,12.781h-232.277c-9.031,0-13.883-3.973-13.883-12.652V855.042
								c0,0-116.398-28.102-124.27-30.371c-7.84-2.273-13.609-9.5-13.609-18.125V660.319c0-10.516,8.398-18.992,18.789-18.992
								h119.09c0,0,0-152.945,0-351.789c0-261.289,183.281-286.961,306.961-286.961c56.512,0,124.109,18.156,135.27,22.273
								c6.75,2.477,10.672,9.469,10.672,17.047l0.188,160.867c0,10.484-8.859,18.969-18.84,18.969c-9.93,0-35.34-4.031-61.5-4.031
								c-83.719,0-112.09,38.922-112.09,89.312c0,50.352-0.008,334.313-0.008,334.313h170.457c10.391,0,18.801,8.477,18.801,18.992
								v183.16C2009.379,853.975,2000.969,862.425,1990.578,862.425"/>
						</g>
					</g>
				</g>
			</g>
		</g>
	</g>
</g>
</svg>
